<svg width="32" height="33" viewBox="0 0 32 33" fill="none" xmlns="http://www.w3.org/2000/svg">
<path fill-rule="evenodd" clip-rule="evenodd" d="M9.9546 6.11774H11.8637V8.02683H15.0455V6.11774H16.9546V8.02683H20.1364V6.11774H22.0455V8.02683H25.1819C25.7342 8.02683 26.1819 8.47454 26.1819 9.02683V11.2086H5.81824V9.02683C5.81824 8.47454 6.26595 8.02683 6.81824 8.02683H9.9546V6.11774ZM5.81824 25.4814C5.81824 26.0337 6.26595 26.4814 6.81824 26.4814H25.1819C25.7342 26.4814 26.1819 26.0337 26.1819 25.4814V13.1177H5.81824V25.4814ZM9.31824 15.6632H12.5001V18.845H9.31824V15.6632ZM12.5001 20.7541H9.31824V23.9359H12.5001V20.7541ZM14.4091 15.6635H17.591V18.8453H14.4091V15.6635ZM17.591 20.7541H14.4091V23.9359H17.591V20.7541ZM19.5001 15.6632H22.6819V18.845H19.5001V15.6632Z" fill="#17A1CC"/>
</svg>
