<svg width="324" height="41" viewBox="0 0 324 41" fill="none" xmlns="http://www.w3.org/2000/svg">
<path d="M75.4658 15.1167H48.0853L47.0708 15.878V40.3209H54.6504V31.1549L55.3739 30.5043H75.4668C80.54 30.5043 82.9185 29.1346 82.9185 25.6201V20.0078C82.9175 16.4874 80.54 15.1167 75.4658 15.1167ZM75.4658 24.1533C75.4658 25.8092 74.3742 26.1531 71.9957 26.1531H55.4569L54.6494 25.3653V20.1293L55.3729 19.465H71.9957C74.3742 19.465 75.4658 19.805 75.4658 21.4687V24.1533Z" fill="white"/>
<path d="M96.7402 19.7403L103.262 29.3296L102.901 30.2584H88.4771L84.7952 34.8037H106.266L107.754 35.7129L111.087 40.3267H119.761L100.748 14.8042" fill="white"/>
<path d="M182.99 35.3621V28.5781L183.771 27.902H198.282V23.5821H175.283V40.3258H209.208V36.0264H183.805" fill="white"/>
<path d="M209.566 15.1167H175.283V19.8667H209.566V15.1167Z" fill="white"/>
<path d="M137.045 19.6149H164.665C164.239 16.0906 162.06 15.1128 156.532 15.1128H136.751C130.513 15.1128 128.523 16.3346 128.523 21.0719V34.3628C128.523 39.105 130.513 40.3268 136.751 40.3268H156.532C162.141 40.3268 164.289 39.2696 164.435 35.614H137.045L136.233 34.8468V20.1283" fill="white"/>
<path d="M28.6398 24.9381H8.54697L7.95528 24.2846V19.9716L8.54404 19.515H35.6307L36.0007 18.6067C35.0781 16.2249 32.6889 15.1138 28.2522 15.1138H9.43645C3.20228 15.1138 1.20949 16.3356 1.20949 21.0729V23.8594C1.20949 28.6026 3.20228 29.8224 9.43645 29.8224H29.4844L30.1142 30.377V34.886L29.6006 35.5895H6.66842V35.5679H0.661747C0.661747 35.5679 -0.0256228 35.9138 0.000739353 36.0754C0.513337 39.3891 2.76291 40.3277 8.1486 40.3277H28.6398C34.873 40.3277 36.9254 39.1059 36.9254 34.3637V30.8923C36.9254 26.158 34.873 24.9381 28.6398 24.9381Z" fill="white"/>
<path d="M231.133 15.0128H219.854L219.242 16.1817L231.767 25.3438C234.14 23.9652 236.721 22.568 239.529 21.1895" fill="white"/>
<path d="M241.238 32.2719L252.247 40.3277H263.662L264.135 39.2607L247.697 27.1868C245.514 28.7946 243.357 30.4926 241.238 32.2719Z" fill="white"/>
<path d="M229.454 40.3091H219.25L218.388 38.9541C225.326 32.2317 256.357 3.41505 323.809 0.327728C323.809 0.327728 267.193 2.2442 229.454 40.3091Z" fill="#17A1CC"/>
</svg>
